<svg
  version="1.1"
  id="Layer_1"
  xmlns="http://www.w3.org/2000/svg"
  xmlns:xlink="http://www.w3.org/1999/xlink"
  viewBox="0 0 64 64"
  enable-background="new 0 0 64 64"
  xml:space="preserve"
  width="128px"
  height="128px"
>
  <g id="Icon">
    <circle fill="#17153B" cx="32" cy="32" r="30" />
    <path
      fill="#fff"
      d="M48.6,43.8c-1.7-0.9-1.2-2.8-2.2-4.1c-1-1.3-3-0.8-4.4-1.9c-1.4-1.1-1.2-3.1-2.5-4.4
     c-1.3-1.3-3.2-1.2-4.4-2.5c-1.2-1.3-0.7-3.4-1.9-4.4c-1.2-1-3.1-0.5-4.1-2.2c-0.9-1.7,0.1-3.8-0.8-5.3c-0.8-1.5-3-1.5-4.4-0.9
     c-2.6,1.1-5.1,2.8-6.6,5.1c-4.8,6.9-2.6,16.9,4.2,21.7c6.9,4.8,16.3,3.2,21.1-3.7c1.1-1.6,1.7-3.5,1.9-5.4
     C52.3,43.1,50.3,44.7,48.6,43.8z"
    />
    <circle fill="#17153B" cx="36" cy="32" r="12" />
    <circle fill="#fff" cx="36" cy="32" r="8" />
  </g>
 
</svg>
